The girl with the dragon tattoo - Swedish 
http://www.imdb.com/title/tt1132620/

Source  :

afn-man.som.hatar.kvinnor-1080p

Info    :

ID                               : 1
Format                           : AVC
Format/Info                      : Advanced Video Codec
Format profile                   : Baseline@L2.0
Format settings, CABAC           : No
Format settings, ReFrames        : 3 frames
Codec ID                         : avc1
Codec ID/Info                    : Advanced Video Coding
Duration                         : 2h 32mn
Bit rate mode                    : Variable
Bit rate                         : 400 Kbps
Width                            : 480 pixels
Height                           : 208 pixels
Display aspect ratio             : 2.35:1
Frame rate mode                  : Variable
Frame rate                       : 24.000 fps
Minimum frame rate               : 23.810 fps
Maximum frame rate               : 24.390 fps
Color space                      : YUV
Chroma subsampling               : 4:2:0
Bit depth                        : 8 bits
Scan type                        : Progressive
Bits/(Pixel*Frame)               : 0.167
Stream size                      : 436 MiB (75%)
Writing library                  : x264 core 79

ID                               : 2
Format                           : AAC
Format/Info                      : Advanced Audio Codec
Format version                   : Version 4
Format profile                   : LC
Format settings, SBR             : No
Codec ID                         : 40
Duration                         : 2h 32mn
Bit rate mode                    : Variable
Bit rate                         : 128 Kbps
Maximum bit rate                 : 184 Kbps
Channel(s)                       : 2 channels
Channel positions                : Front: L R
Sampling rate                    : 48.0 KHz
Stream size                      : 140 MiB (24%)
Language                         : Swedish

Screens :  
http://img807.imageshack.us/img807/7416/vlcsnap00001.png 
http://img39.imageshack.us/img39/5479/vlcsnap00002e.png 
http://img228.imageshack.us/img228/1374/vlcsnap00003u.png 
http://img59.imageshack.us/img59/9803/vlcsnap00004i.png 
http://img38.imageshack.us/img38/6572/vlcsnap00005c.png 
http://img97.imageshack.us/img97/6751/vlcsnap00006x.png 
http://img517.imageshack.us/img517/1359/vlcsnap00007k.png 
http://img156.imageshack.us/img156/8698/vlcsnap00008x.png



THIS MOVIE IS IN SWEDISH WITH ENGLISH SUBS! REASON? 
THE DUBBED VERSION IS A SHAME FOR THE ENTIRE MOVIE!!!!





PLEASE LET THE TORRENT SEED AND SHARE IT WITH ALL YOU KNOW!

Let me know what I can do to be your trusted source of Handheld videos. 
http://thepiratebay.org/user/on.off.on/ -OOO